# xmcd CD database file
#
# Track frame offsets:
#	150
#	19562
#	33930
#	46850
#	63372
#	77707
#	89132
#	102970
#	120215
#	134895
#
# Disc length: 1992 seconds
#
# Revision: 0
# Processed by: cddbd v1.5.2PL0 Copyright (c) Steve Scherf et al.
# Submitted via: CDex 1.70beta2
#
DISCID=7c07c60a
DTITLE=Rionegro e Solimões - As melhores músicas
DYEAR=1900
DGENRE=Country
TTITLE0=Frio da Madrugada
TTITLE1=De São Paulo a Belém
TTITLE2=Tô Doidão
TTITLE3=A gente se entrega
TTITLE4=No pique do rodeio
TTITLE5=Rei da festa
TTITLE6=Eu quero fazer amor
TTITLE7=Falta você
TTITLE8=Trem bão
TTITLE9=Como esquecer um amor
EXTD=
EXTT0=
EXTT1=
EXTT2=
EXTT3=
EXTT4=
EXTT5=
EXTT6=
EXTT7=
EXTT8=
EXTT9=
PLAYORDER=
